<?xml version="1.0" encoding="UTF-8" standalone="no"?>
<!-- Created with Inkscape (http://www.inkscape.org/) -->

<svg
   xmlns:osb="http://www.openswatchbook.org/uri/2009/osb"
   xmlns:dc="http://purl.org/dc/elements/1.1/"
   xmlns:cc="http://creativecommons.org/ns#"
   xmlns:rdf="http://www.w3.org/1999/02/22-rdf-syntax-ns#"
   xmlns:svg="http://www.w3.org/2000/svg"
   xmlns="http://www.w3.org/2000/svg"
   xmlns:sodipodi="http://sodipodi.sourceforge.net/DTD/sodipodi-0.dtd"
   xmlns:inkscape="http://www.inkscape.org/namespaces/inkscape"
   width="16mm"
   height="16mm"
   id="svg4742"
   version="1.1"
   inkscape:version="0.91pre1_64bit "
   viewBox="0 0 56.692913 56.692912"
   sodipodi:docname="FLIXX_ISO.svg">
  <defs
     id="defs4744">
    <inkscape:path-effect
       effect="bend_path"
       id="path-effect7722"
       is_visible="true"
       bendpath="m 406.32093,882.64719 367.45591,0"
       prop_scale="1.03"
       scale_y_rel="false"
       vertical="false" />
    <inkscape:perspective
       sodipodi:type="inkscape:persp3d"
       inkscape:vp_x="0 : 526.18109 : 1"
       inkscape:vp_y="0 : 1000 : 0"
       inkscape:vp_z="744.09447 : 526.18109 : 1"
       inkscape:persp3d-origin="372.04724 : 350.78739 : 1"
       id="perspective7680" />
    <linearGradient
       id="linearGradient7548"
       osb:paint="solid">
      <stop
         style="stop-color:#14979c;stop-opacity:1;"
         offset="0"
         id="stop7550" />
    </linearGradient>
    <marker
       inkscape:stockid="Arrow1Lstart"
       orient="auto"
       refY="0"
       refX="0"
       id="Arrow1Lstart"
       style="overflow:visible"
       inkscape:isstock="true">
      <path
         id="path7176"
         d="M 0,0 5,-5 -12.5,0 5,5 0,0 Z"
         style="fill:#000000;fill-opacity:1;fill-rule:evenodd;stroke:#149c38;stroke-width:1pt;stroke-opacity:0"
         transform="matrix(0.8,0,0,0.8,10,0)"
         inkscape:connector-curvature="0" />
    </marker>
    <linearGradient
       id="linearGradient7166"
       osb:paint="solid">
      <stop
         style="stop-color:#000000;stop-opacity:1;"
         offset="0"
         id="stop7168" />
    </linearGradient>
    <linearGradient
       inkscape:collect="always"
       id="linearGradient5392"
       osb:paint="gradient">
      <stop
         style="stop-color:#860000;stop-opacity:1;"
         offset="0"
         id="stop5394" />
      <stop
         style="stop-color:#860000;stop-opacity:0;"
         offset="1"
         id="stop5396" />
    </linearGradient>
    <clipPath
       clipPathUnits="userSpaceOnUse"
       id="clipPath7843">
      <rect
         style="opacity:0.919;fill:#ff5656;fill-opacity:0.99607843;fill-rule:evenodd;stroke:#66ff00;stroke-width:2.21645617;stroke-linejoin:round;stroke-miterlimit:4.0999999;stroke-dasharray:none;stroke-opacity:0.92156863"
         id="rect7845"
         width="8714.5146"
         height="4472.5483"
         x="-9158.9766"
         y="-5466.5845"
         transform="scale(-1,-1)" />
    </clipPath>
    <clipPath
       clipPathUnits="userSpaceOnUse"
       id="clipPath7930">
      <rect
         style="opacity:1;fill:#9c0000;fill-opacity:1;fill-rule:evenodd;stroke:#f0f0f0;stroke-width:1.46038997;stroke-linejoin:round;stroke-miterlimit:4.0999999;stroke-dasharray:none;stroke-opacity:0.99215686"
         id="rect7932"
         width="7536.3511"
         height="5822.4478"
         x="2554.7078"
         y="-5726.7295"
         transform="scale(-1,-1)" />
    </clipPath>
  </defs>
  <sodipodi:namedview
     id="base"
     pagecolor="#ffffff"
     bordercolor="#666666"
     borderopacity="1.0"
     inkscape:pageopacity="0.0"
     inkscape:pageshadow="2"
     inkscape:zoom="11.2"
     inkscape:cx="28.535706"
     inkscape:cy="17.494852"
     inkscape:document-units="px"
     inkscape:current-layer="layer1"
     showgrid="false"
     units="mm"
     inkscape:window-width="2560"
     inkscape:window-height="1369"
     inkscape:window-x="-8"
     inkscape:window-y="-8"
     inkscape:window-maximized="1" />
  <metadata
     id="metadata4747">
    <rdf:RDF>
      <cc:Work
         rdf:about="">
        <dc:format>image/svg+xml</dc:format>
        <dc:type
           rdf:resource="http://purl.org/dc/dcmitype/StillImage" />
        <dc:title></dc:title>
      </cc:Work>
    </rdf:RDF>
  </metadata>
  <g
     inkscape:label="Capa 1"
     inkscape:groupmode="layer"
     id="layer1"
     transform="translate(0,-995.66929)">
    <text
       transform="scale(1.0297874,0.97107423)"
       id="text4137"
       y="-172.01605"
       x="-204.30702"
       style="font-style:normal;font-variant:normal;font-weight:normal;font-stretch:normal;font-size:155.87266541px;font-family:Archive;-inkscape-font-specification:Archive;opacity:0.98900003;fill:#f0f0f0;fill-opacity:1;stroke-width:0;stroke-miterlimit:2;stroke-dasharray:none"
       xml:space="preserve"><tspan
         y="-172.01605"
         x="-204.30702"
         id="tspan4139"
         sodipodi:role="line">AUTO</tspan></text>
    <text
       transform="scale(0.96317493,1.038233)"
       id="text4141"
       y="-840.76495"
       x="-988.63934"
       style="font-style:normal;font-variant:normal;font-weight:normal;font-stretch:normal;font-size:152.43721008px;font-family:Archive;-inkscape-font-specification:Archive;opacity:0.528;fill:#ff5757;fill-opacity:1;stroke-width:0;stroke-miterlimit:2;stroke-dasharray:none"
       xml:space="preserve"><tspan
         y="-840.76495"
         x="-988.63934"
         id="tspan4143"
         sodipodi:role="line">FLIXX</tspan></text>
    <text
       transform="scale(0.96317493,1.038233)"
       id="text4141-2"
       y="-160.73248"
       x="204.5143"
       style="font-style:normal;font-variant:normal;font-weight:normal;font-stretch:normal;font-size:152.43721008px;font-family:Archive;-inkscape-font-specification:Archive;opacity:0.98900003;fill:#ff5757;fill-opacity:1;stroke-width:0;stroke-miterlimit:2;stroke-dasharray:none"
       xml:space="preserve"><tspan
         y="-160.73248"
         x="204.5143"
         id="tspan4143-4"
         sodipodi:role="line">FLIXX</tspan></text>
    <path
       style="opacity:1;fill:#ff5858;fill-opacity:1;fill-rule:evenodd;stroke:#f0f0f0;stroke-width:0.00831699;stroke-linejoin:round;stroke-miterlimit:4.0999999;stroke-dasharray:none;stroke-opacity:0.99215686"
       inkscape:transform-center-x="-6.5179919"
       inkscape:transform-center-y="-2.3217452"
       d="m 54.100456,1024.353 c -1.138104,7.9136 -41.068414,27.7313 -45.3521579,25.9213 -3.5413334,-16.2217 -4.9891355,-34.2031 -0.6501127,-51.13303 11.4266096,1.87933 40.3565856,14.05653 46.0022706,25.21173 z"
       id="path7862"
       inkscape:connector-curvature="0"
       sodipodi:nodetypes="cccc" />
    <path
       style="color:#000000;font-style:normal;font-variant:normal;font-weight:normal;font-stretch:normal;font-size:medium;line-height:normal;font-family:sans-serif;text-indent:0;text-align:start;text-decoration:none;text-decoration-line:none;text-decoration-style:solid;text-decoration-color:#000000;letter-spacing:normal;word-spacing:normal;text-transform:none;direction:ltr;block-progression:tb;writing-mode:lr-tb;baseline-shift:baseline;text-anchor:start;clip-rule:nonzero;display:inline;overflow:visible;visibility:visible;opacity:1;isolation:auto;color-interpolation:sRGB;color-interpolation-filters:linearRGB;fill:#ff5757;fill-opacity:0.99215686;fill-rule:evenodd;stroke:none;stroke-width:0.1;stroke-linecap:butt;stroke-linejoin:round;stroke-miterlimit:4.0999999;stroke-dasharray:none;stroke-dashoffset:0;stroke-opacity:1;color-rendering:auto;image-rendering:auto;shape-rendering:auto;text-rendering:auto;enable-background:accumulate"
       d="m 7.2775624,996.64908 c -0.2645369,0 -0.5055138,0.0187 -0.7247266,0.0697 -0.4923799,0.11333 -0.836025,0.47929 -1.1193863,0.94676 -0.2833599,0.46759 -0.5190362,1.07232 -0.732558,1.80946 -0.4270423,1.4742 -0.7557814,3.478 -1.0060409,5.8574 -0.5005218,4.759 -0.6789652,11.0114 -0.5894935,17.3388 0.089478,6.3276 0.4472081,12.7261 1.0250782,17.7722 0.2889361,2.523 0.6321418,4.7067 1.0289976,6.385 0.3968489,1.6784 0.7694285,2.8335 1.4458956,3.4396 0.355027,0.318 0.8379471,0.3822 1.394471,0.3705 0.5565139,-0.017 1.2197324,-0.1195 1.995528,-0.3042 1.5515925,-0.3698 3.5479425,-1.0544 5.8499455,-1.9737 4.604009,-1.8385 10.419675,-4.6166 16.142381,-7.6827 5.722701,-3.066 11.348469,-6.4178 15.569959,-9.4116 2.110747,-1.4967 3.870032,-2.9024 5.123798,-4.153 1.253764,-1.2506 2.050524,-2.3207 2.074001,-3.3517 0.02388,-1.0485 -0.721032,-2.1397 -1.914219,-3.3778 -1.193179,-1.2382 -2.882646,-2.6112 -4.923082,-4.0675 -4.080887,-2.913 -9.564848,-6.1514 -15.2157,-9.1491 -5.650844,-2.9978 -11.46533,-5.7525 -16.204474,-7.68867 -2.369573,-0.96793 -4.46913,-1.7311 -6.155996,-2.21924 -1.2651412,-0.36604 -2.2707703,-0.60029 -3.0643786,-0.60952 z m 23.5369326,13.37502 c 28.619901,10.9947 28.757761,16.582 -0.289653,27.1272 -12.512846,5.9902 -21.5872354,17.5931 -23.3600914,3.0881 -0.5731573,-5.0048 1.4506017,-10.469 1.3614669,-16.7729 -0.089147,-6.3035 -2.500271,-11.6093 -2.005641,-16.3122 2.7678104,-14.50356 17.4986655,-0.1 24.2939185,2.8698 z"
       id="path5366"
       inkscape:connector-curvature="0"
       sodipodi:nodetypes="cssssssssssssssssssssccccscc" />
    <g
       id="g7884"
       transform="matrix(-0.03926654,0,0,-0.05230238,108.95528,965.36826)"
       style="fill:#ff5757;fill-opacity:0.99215686;stroke:none">
      <path
         id="path7886"
         d="m -3458.2583,4648.7403 c -14,-3 -32,-14 -40,-24 -11,-14 -42,-23 -126,-34 -155,-22 -429,-80 -549,-117 -384,-119 -990,-392 -1540,-695 l -151,-82 -154,-7 c -748,-30 -1570,-109 -2137,-204 -531,-90 -845,-176 -1098,-301 -273.0002,-134 -280.0002,-143 -272.0002,-340 3,-77 15,-173 31,-249 30,-141 33,-237 10,-331 -8,-37 -12,-80 -9,-99 10,-51 47,-119 95,-173 l 42,-48 106.0002,0 c 133,0 172,-10 206,-54 31,-41 34,-41 366,-56 124,-6 253,-13 288,-16 l 62,-6 1,189 c 1,103 4,215 8,248 l 7,60 8,-100 c 4,-55 14,-131 21,-168 16,-77 85,-228 139,-302 -192.5283,80.1245 -1075.8671,215.0632 -1244.6908,303.8389 -262.0869,137.8182 213.992,234.7487 69.5741,386.2271 -482.77,506.3728 -129.6738,1025.5404 2270.7291,1159.4828 203.3093,11.3447 1136.9956,16.8553 1244.6483,78.0719 1460.8729,830.7239 1239.7793,682.7869 1956.652,868.0469 1067.7382,275.9334 1873.1365,-65.2898 2528.9076,-494.7218 C -6.89583,3181.8221 488.87291,1594.3096 612.74154,1969.7403 c 30,83 38,325 15,435 -49.00001,229 -245.00001,473 -459.00001,570 -327.99999,149 -695.99995,83 -946.99995,-169 -171,-172 -239.99998,-343 -239.99998,-594 1113.23368,-537.9817 -376.3478,-372.6844 -2251.6594,-316.5895 -1783.7979,53.3575 -3943.9238,-10.6356 -3504.3405,-166.4105 109,153 154,289 163,496 9,190 20,125 32,-193 5,-143 11,-260 13,-262 2,-2 1236,0 2743,4 l 2739.9999,6 6,255 c 5,208 10,272 27,348 24,103 78.99998,229 138.99998,318 89,131 266,264 429,323 172.99995,63 417.999958,67 588.99995,10 314,-105 527.00001,-360 580.00001,-692 8,-51 17,-184 21,-296 l 7,-203 61,6 c 33.99999,4 221.00003,31 416.00006,61 195,30 434,63 530.0001,75 194,24 299,44 335,62 27,15 217,215 235,247 8,16 8,41 -1,99 -10,68 -9,91 10,197 11,66 24,175 28,243 l 6,124 -57,111 c -75,149 -90,213 -82,347 3,58 12,147 20,198 l 15,93 -41,58 -40,58 -144,7 c -80,4 -231,17 -337.0001,31 -106,13 -253,29 -327,35 -134,12 -137,13 -450.00007,122 -358,126 -783,267 -973.999992,323 -121.000008,37 -129.000008,41 -142.000008,71 -16,38 -38,44 -328.99995,93 -399,67 -754.99988,102 -1324.99988,132 -208,10 -1538,21 -1580,13 z m 1815,-83 c 413,-34 912.99988,-102 1217.99988,-166 86,-18 99,-28 70,-56 l -21,-21 -78,30 c -101,39 -207,65 -364,91 -275.99998,45 -782.99988,90 -1259.99988,112 -296,13 -1018,7 -1165,-10 -270,-32 -451,-64 -646,-117 -136,-37 -165,-39 -218,-20 -44,16 -40,17 133,56 254,56 455,85 731,105 216,16 1395,13 1600,-4 z m -150,-75 c 188,-16 526,-52 583,-62 34,-7 52,-28 36,-44 -5,-5 -40,-3 -80,5 -40,7 -105,17 -145,20 -41,4 -90,11 -109,16 -95,23 -610,55 -1061,66 -238,6 -300,10 -234,14 148,11 817,0 1010,-15 z m 984.99988,-127 c 347,-62 519.99995,-109 1174.99995,-319 678.00007,-217 956.00007,-289 1229.00007,-318 47,-4 -58,-9 -306,-12 -207,-3 -380.00003,-8 -384.00003,-12 -4,-5 -4,-11 0,-15 4,-5 235.00003,-12 514.00003,-18 l 506.0001,-10 37,-70 c 43,-82 55,-115 40,-115 -6,0 -21,12 -34,26 -32,38 -94,71 -157,83 -90,18 -266.0001,31 -406.0001,31 -118,0 -135,-2 -175,-23 l -44,-24 -730.00007,-7 c -401.999997,-4 -774.99995,-10 -829.99995,-15 -55,-4 -101,-8 -102,-7 -1,1 42,46 95,101 53,55 113.99995,124 133.99995,155 21,30 54,78 73,105 37.00001,51 40.00001,71 20.00001,134 -7,21 -6,22 13,12 11,-6 33,-16 47.999998,-22 28,-10 28,-10 9,10 -10,12 -13,21 -7,21 19,0 62,-61 62,-88 0,-34 -31,-86 -65,-108 -19.999998,-13 -22.999998,-19 -12.999998,-25 9.999998,-7 9.999998,-9 -1,-9 -8,0 -23,-7 -33,-17 -22.00001,-20 -24.00001,-63 -3,-63 11,0 14,7 9,24 -4,18 -1,25 14,28 24.999998,7 75.999998,76 97.999998,134 20.0000002,54 12,79 -38,117 -75.999998,57 -428.999958,176 -762.999958,256 -94,23 -191.99998,47 -219.99998,54 -40,10 -51,17 -53,35 -2.9999,21 -1,23 30,17 18,-3 133.99998,-24 257.99998,-46 z m -3390.99988,-1 c 11,-30 1,-42 -57,-63 -45,-17 -243,-112 -907,-433 -350,-169 -396,-185 -485,-176 -64,7 -65,7 -32,18 18,6 30,14 27,18 -27,26 938,490 1270,611 155,56 171,58 184,25 z m 1504,15 c 5,-8 -229,-653 -241,-665 -11,-10 -453,-28 -952,-39 -250,-5 -498,-12 -550,-15 -120,-6 -128,-1 -106,62 23,67 20,105 -10,149 -14,21 -23,43 -20,50 6,17 206,118 391,198 463,199 767,260 1332,265 83,1 154,-1 156,-5 z m 147,-5 c 0,-7 -20,-112 -44,-233 -24,-121 -52,-263 -61,-315 -10,-52 -21,-99 -25,-103 -8,-10 -179,-12 -188,-3 -6,6 126,378 227,639 9,23 16,27 51,27 25,0 40,-5 40,-12 z m 320,2 c 280,-17 640,-53 849,-86 167,-27 521.99988,-105 675.99988,-149 180,-52 385,-126 378,-138 -2,-4 -14,-5 -26,-1 -20,6 -20,5 -8,-10 10,-12 22,-15 39,-11 l 23.99995,6 -31.99995,-58 c -42,-73 -107,-170 -121,-178 -6,-4 -48,-4 -94,0 -70,6 -84,10 -88,26 -7,25 -43,25 -50,0 -6,-23 -28,-24 -1124.99988,-47 -546,-11 -797,-13 -804,-6 -7,7 9,112 53,336 l 64,326 50,0 c 28,0 124,-5 215,-10 z m -1691,-24 c -2,-2 -40,-16 -84,-31 -230,-80 -549,-231 -1032,-487 -302,-159 -482,-239 -538,-237 -11,0 25,18 80,40 55,21 323,151 595,288 528,266 694,343 854,397 89,30 138,42 125,30 z m 3857.999838,-82 c 238.999992,-73 604.999992,-196 599.999992,-201 -5,-4 -81,17 -556.999992,158 -139.999998,42 -250.000008,79 -250.000008,85 0,14 79,-2 207.000008,-42 z m -133.000008,-271 c 4,-9 -4,-36 -16,-59 -25,-47 -147.99995,-203 -160.99995,-204 -4,0 14,33 41,73 61.99995,92 91.99995,150 91.99995,180 0,13 3,26 6,30 9,9 32,-3 38,-20 z m 1816.00007,-194 c 151.0001,-16 322.0001,-33 380.0001,-36 101,-5 140,-18 140,-45 0,-5 -48,-7 -107,-6 -84,2 -107,6 -105,16 1,8 -5,12 -15,10 -11,-2 -19,-14 -21,-31 l -3,-27 -337.0001,2 -337,1 295,9 c 327.0001,9 355.0001,12 364.0001,34 11,28 -4,34 -77,34 -80,0 -274.0001,22 -412.0001,46 -95,17 -149,36 -80,28 22,-2 164,-18 315,-35 z m -6249.9999,-49 c 0,-20 4,-40 10,-46 16,-16 -4,-34 -53,-49 -26,-8 -47,-12 -47,-9 0,3 14,17 30,31 33,27 38,54 15,73 -13,11 -13,15 7,34 27,25 38,16 38,-34 z m 4113.99988,-89 89,-6 -44,-38 c -24,-21 -55,-48 -69,-61 -20,-17 -46,-25 -125,-34 -237,-29 -649.99988,-152 -845.99988,-253 -49,-24 -52,-44 -5,-36 50,8 189,75 181,87 -4,6 7,10 28,10 18,0 105,20 193,44 241.99988,67 459.99988,111 490.99988,99 8,-3 -2,-23 -30,-55 -83,-98 -150,-168 -162,-168 -6,0 -19,-15 -27,-34 -17,-35 -183.99998,-261 -244.99998,-331 -18.9999,-22 -69.9999,-89 -112.9999,-150 -80,-114 -113,-150 -152,-169 -14,-7 -29,-30 -40,-61 l -17,-50 -1,62 c 0,61 -14,89 -31,62 -5,-8 -9,-34 -9,-59 0,-52 -12,-69 -49,-71 -25,-1 -24,-2 4,-9 30,-8 30,-8 -8,-9 -21,0 -51,6 -68,14 -16,9 -34,13 -39,10 -11,-7 -473,-34 -700,-41 -85,-2 -271,-10 -412,-17 -228,-11 -259,-10 -265,3 -23,51 -9,822 17,912 l 10,36 73,6 c 141,12 146,13 92,15 l -50,3 40,13 c 40,13 39,13 -48,14 -87,1 -88,1 -81,24 9,29 72,122 115,169 l 34,37 575,10 c 316,5 647,7 735,3 l 160,-7 3,-48 c 7,-106 -35,-126 -323,-157 -87,-9 -793,-30 -1008,-30 -65,0 -77,-3 -77,-16 0,-15 51,-16 623,-11 343,3 638,10 657,15 l 35,10 -35,2 c -29,2 -25,4 30,16 86,19 111,39 136,109 24,67 57,99 117,116 76.9999,21 458.99988,34 640.99988,20 z m 2655.00012,-86 c -5,-50 -13,-130 -17,-180 l -8,-90 -38,120 c -22,66 -47,136 -56,155 -40,80 -40,79 47,82 43,2 79,3 80,3 1,-1 -2,-41 -8,-90 z m -8176,41 39,-13 -69,-6 c -37,-4 -108,-7 -158,-6 l -90,0 50,14 c 104,28 172,31 228,11 z m 3142,5 40,-8 -52,-51 c -29,-29 -53,-57 -53,-62 0,-6 -7,-13 -15,-16 -8,-3 -17,-14 -20,-24 -15,-47 -105,-58 -645,-80 -306,-12 -1460,-56 -1722,-66 -120,-4 -178,-3 -178,4 0,5 14,40 30,77 35,79 35,76 13,68 -33,-11 -52,-35 -70,-85 -10,-28 -27,-57 -38,-64 -22,-14 -196,-25 -785,-50 -292,-12 -378,-19 -390,-30 -12,-12 15,-14 195,-14 192,0 702,20 903,36 l 83,6 -5,-34 c -3,-18 -10,-82 -16,-142 -289.6528,-362.4261 699.3517,-434.9402 57,-982 -8,-8 -422,-23 -657,-24 l -206,0 -17,133 c -21,162 -44,255 -97,391 -49,125 -96,200 -184,294 -86,90 -152,140 -252,191 -230,115 -522,140 -779,66 -165,-48 -305,-119 -305,-155 0,-11 -5,-22 -12,-26 -8,-5 -9,-2 -5,9 3,10 3,17 -2,17 -13,0 -141,-139 -141,-153 0,-7 -11,-28 -25,-47 -14,-19 -25,-30 -25,-26 0,4 9,21 21,38 12,16 19,31 16,34 -9,10 -89,-111 -133,-203 -57,-118 -92,-279 -100,-452 -4,-90 -3,-122 5,-111 8,11 11,-6 11,-65 0,-44 3,-91 6,-105 5,-20 3,-22 -5,-10 -10,13 -12,13 -21,0 -8,-13 -36,-15 -172,-12 -250,4 -320,14 -365,48 l -37,28 104,12 c 105,12 180,34 180,53 0,6 24,27 54,46 91,61 149,165 162,294 12,107 -28,120 -308,103 -241,-15 -252,-20 -312,-146 -24,-51 -52,-99 -62,-106 -16,-14 -17,-12 -11,30 10,77 47,180 75,211 31,34 97,54 220,65 81,8 106,23 40,26 -42,1 -42,1 12,8 l 55,7 -61,1 c -73,2 -224,-23 -263,-43 -42,-21 -62,-58 -101,-190 l -37,-120 -68.0002,-3 -68,-3 7,28 c 3,15 9,81 13,145 l 6,118 51,29 c 29,16 57.0002,36 65.0002,44 15,18 30,164 31,289 0,109 -16,133 -99.0002,148 -30,6 -56,12 -59,14 -13,13 262.0002,130 388.0002,165 349,97 678,159 1215,230 604,80 1367,147 1780,156 300,6 173,-9 -365,-45 -925,-61 -1475,-122 -2000,-221 -256,-49 -602,-151 -715,-212 -55,-29 -60,-35 -59,-64 2,-39 51,-114 85,-130 28,-13 162,-6 409,23 205,23 260,38 327,88 99,73 200,174 242,241 23,36 46,65 52,65 6,0 129,16 273,35 442,59 725,84 1536,135 495,31 668,49 758,75 30,9 56,14 58,12 11,-11 -18,-57 -42,-69 -15,-7 -30,-19 -32,-26 -3,-11 0,-12 17,-3 11,7 21,9 21,6 0,-4 12,3 26,14 15,12 43,25 63,31 33,8 610,34 1376,60 329,11 818,29 905,34 113,5 166,5 205,-3 z m 4571.9999,-57 c 13.0001,-4 20.0001,-11 16.0001,-19 -3,-8 8,-20 27,-30 18,-9 30,-18 28,-20 -1,-1 -25,1 -53,5 -62.0001,11 -111.0001,12 -102.0001,3 4,-3 -2,-12 -13,-20 -29,-20 -25,-37 18,-85 l 37,-42 -33,24 c -18,14 -51,48 -73,77 -41,52 -80,76 -87,54 -2,-7 -35,-11 -92,-11 -61,0 -90,-4 -93,-12 -3,-8 -6,-6 -6,4 -1,9 7,22 17,27 16,10 16,10 0,11 -31,0 -28,17 5,34 28,15 55,16 207,11 96,-3 185,-8 197,-11 z m -444,-99 c 54,-61 191,-156 277,-191 32,-13 100,-28 152,-35 211.0001,-25 214.0001,-26 103.0001,-30 l -100.0001,-3 80.0001,-6 80,-6 -78,-2 c -49,-1 -76.0001,-6 -72.0001,-12 4,-6 78.0001,-10 191.0001,-10 l 184,0 22,45 c 12,25 28,45 35,45 7,0 21,-17 30,-37 9,-21 40,-89 70,-152 29,-62 53,-115 53,-117 0,-2 -35,-3 -77,-2 -75,1 -76,1 -23,7 52,6 48,7 -65,19 -244,26 -344,62 -587.0001,210 -65,39 -118,66 -118,59 -1,-6 -12,2 -25,18 -14,17 -25,24 -25,16 0,-8 -3,-12 -6,-9 -3,4 -6,10 -5,15 0,14 -42,53 -57,53 -12,0 -12,-2 -1,-17 10,-11 10,-14 2,-9 -22,13 -13,-8 10,-25 12,-9 69,-48 127,-86 302.0001,-202 438.0001,-250 753.0001,-269 90,-5 117,-10 117,-21 0,-32 -22,-214 -36,-292 -8,-46 -14,-125 -14,-175 0,-50 -4,-97 -9,-104 -15,-25 -49,35 -66,116 -9,42 -18,82 -20,87 -4,12 -9,-108 -7,-148 3,-40 30,-88 53,-94 10,-3 19,-11 19,-18 0,-18 -100,-107 -114,-102 -7,3 -11,65 -11,197 0,220 8,202 -96,215 -72,9 -582.0001,-11 -928.0001,-35 -151.00003,-11 -275.00006,-19 -275.00006,-18 -1,2 -10,28 -20,58 -76,226 -283.00001,432 -543.00001,540 -135.999997,57 -172.999997,62 -411,58 -204.99995,-4 -221.99995,-6 -301.99995,-32 -145,-48 -285,-128 -316,-181 -5,-10 -30,-34 -54,-54 -38,-32 -42,-33 -30,-11 l 13,25 -28,-25 c -46,-42 -114.99998,-138 -109.99998,-152 3,-7 -1,-22 -9,-33 -14,-19 -15,-19 -9,5 l 5,25 -16,-22 c -61.9999,-83 -129.9999,-272 -153.9999,-423 l -17,-110 -30,-5 c -16,-2 -88,-7 -160,-10 l -130,-6 45,46 c 25,25 55,48 67,51 15,4 29,25 50,77 19,48 35,75 51,82 12,5 22,15 22,20 0,25 326.99988,473 416.99988,572 21,23 39,48 41,55 5,20 44,58 59,58 7,0 13,8 13,18 0,19 23,49 159,207 92,107 96,110 145,118 78,12 616.99995,24 1165.99996,25 l 495.00006,2 z m 182,-4 c 21,-1 53,-20 105,-62 41,-34 89,-68 105,-75 l 30,-13 -30,0 c -41,-1 -129,37 -219,93 -89,55 -97,65 -53,61 17,-2 46,-3 62,-4 z m -4438.9999,-145 c -23,-92 -37,-777 -18,-866 4,-19 6,-44 4,-56 -3,-20 -7,-21 -129,-16 -71,3 -168,0 -222,-7 -53,-7 -169,-16 -258,-19 -89,-4 -165,-11 -168,-14 -29,-29 59,-34 380,-21 151,6 168,8 173,25 5,22 15,23 32,3 7,-8 17,-15 22,-15 6,0 8,7 4,15 -4,12 4,15 46,15 48,0 50,-1 32,-15 -17,-13 -15,-14 32,-15 60,0 63,-3 71,-101 4,-42 2,-69 -5,-73 -12,-7 -647,-31 -1117,-43 -277,-6 -352,-19 -140,-23 55,-1 125,-6 155,-10 30,-5 -115,-6 -325,-3 -358,5 -464,10 -329,15 32,2 -116,5 -331,8 l -390,5 c 596.514,357.1524 -70,693.9525 -70,936 0,46 4,114 8,150 l 8,66 95,7 c 266,17 290,20 249,27 -31,5 -21,6 42,8 45,0 83,-2 85,-6 2,-5 136,-3 298,3 162,7 468,17 680,23 212,7 399,13 415,15 17,1 176,4 354,4 l 323,2 z m -5133,-46 c -9,-35 -28,-43 -62,-26 -16,9 -38,16 -48,16 -27,0 -2,18 32,23 72,10 83,8 78,-13 z m 9601.9999,-60 c 24,-17 47,-35 51,-41 3,-6 -19,6 -50,27 -31,20 -56,38 -56,40 0,9 14,2 55,-26 z m -9704.9999,-45 c 14,-17 -42,-65 -77,-65 -15,0 -35,-7 -45,-17 -17,-15 -18,-14 -18,34 0,51 0,51 38,60 44,11 87,6 102,-12 z m 8320.999833,-24 c 90.999997,-21 198.999997,-63 286.999997,-111 42,-23 58,-27 64,-18 6,10 8,9 8,-2 0,-9 32,-47 71,-85 146.00001,-144 239.00001,-315 284.00001,-524 24.99999,-115 39.99999,-377 24.99999,-445 -7,-37 -14.99999,-54 -19.99999,-46 -4,7 -11,88 -15,179 -10,265 -31,379 -100,527 -110.00001,241 -324.00001,418 -584.000007,485 -107.999995,28 -404.999953,27 -513.999953,0 -240,-62 -452,-227 -584.99998,-455 -34,-58 -62,-115 -62,-126 0,-11 -3,-20 -8,-20 -4,0 -15.9999,-55 -25.9999,-122 -22,-143 -32,-178 -53,-178 -12,0 -14,8 -9,40 3,22 9,58 12,80 4,27 3,40 -5,40 -6,0 -11,9 -11,21 0,12 4,17 11,14 7,-5 8,5 3,30 -4,25 -3,36 4,32 5,-4 13,8 17,29 3,20 17,53 29,73 29.9999,47 101.9999,190 109.9999,217 4,12 15.99998,30 27.99998,40 21,19 21,19 9,-4 -19,-37 -7,-36 21,0 24,31 233,245 222,227 -9,-16 12,-9 92,27 88,40 219,80 309,94 88.99995,13 287.999958,4 385.999953,-19 z m -8496.999833,3 c 10,-27 7,-89 -6,-106 -7,-9 -33,-22 -58,-28 -25,-6 -53,-14 -63,-16 -14,-4 -10,8 19,63 21,37 44,76 52,86 19,21 48,22 56,1 z m 1136,1 c 112,-17 224,-52 320,-100 77,-39 88,-42 70,-20 -11,13 -10,14 4,9 9,-3 16,-10 16,-14 0,-13 51,-70 62,-70 6,0 4,7 -3,17 -26,31 23,-2 56,-38 17,-19 21,-27 10,-18 -73,58 -34,13 52,-60 15,-13 20,-18 11,-11 -10,7 -18,9 -18,4 0,-14 43,-54 59,-55 10,0 11,-2 4,-6 -9,-3 -1,-28 26,-81 21,-42 51,-111 65,-152 62,-170 113,-448 87,-464 -16,-10 -26,23 -51,174 -49,301 -151,507 -322,650 -93,78 -164,118 -281,158 -95,33 -113,35 -252,40 -245,7 -393,-24 -562,-119 -106,-60 -243,-197 -302,-303 -95,-168 -129,-314 -140,-602 -4,-106 -10,-197 -15,-201 -18,-18 -26,31 -26,162 0,302 52,519 168,693 26,39 89,114 140,166 50,53 92,101 92,108 0,10 2,10 9,0 6,-10 22,-5 73,22 100,55 249,100 393,119 68,9 166,6 255,-8 z m -1391,-10 c 28,-14 47,-53 33,-66 -4,-4 -32,-9 -62,-11 -51,-3 -55,-1 -58,20 -4,28 23,72 44,72 8,0 28,-7 43,-15 z m -149,-95 c 0,-73 -9,-80 -113,-80 -72,0 -76,1 -102,31 -14,18 -22,35 -18,39 4,4 42,17 83,29 41,12 86,26 100,31 47,16 50,13 50,-50 z m 1550,-42 c 144,-26 276,-104 399,-234 140,-148 209,-303 218,-494 141.8797,-853.6834 -1249.5502,-1084.9638 -1526,-293 -73,217 -62,403 36,597 163,327 505,493 873,424 z m 7272.999838,-29 c 114.999995,-21 245.999992,-92 348.999992,-188 168,-157 251,-344 250,-565 85.58001,-717.3569 -1077.22755,-1064.3806 -1459.99995,-359 -73,140 -103,303 -83,446 49,350 323,630 660.99995,678 61,8 208.000008,2 283.000008,-12 z m -8112.999838,-44 c -18,-19 -36,-32 -39,-29 -5,5 57,63 68,64 3,0 -10,-16 -29,-35 z m -1281.0002,-12 c 1,4 9,4 18,-2 12,-6 20,-5 29,6 21,30 33,5 17,-39 -20,-58 -6,-238 18,-238 5,0 9,-7 9,-15 0,-10 -10,-15 -30,-15 -35,0 -39,-13 -7,-27 l 22,-10 -23,-7 c -13,-5 -26,-5 -29,-2 -3,3 -16,44 -29,90 -19,75 -20,85 -7,90 16,6 15,40 -2,161 -4,29 -3,35 4,20 5,-11 10,-16 10,-12 z m 111.0002,-109 c 0,-143 -13.0002,-172 -24.0002,-55 -6,61 8,191 20.0002,191 2,0 4,-61 4,-136 z m 2490,41 c 7,-8 8,-15 2,-15 -5,0 -15,7 -22,15 -7,8 -8,15 -2,15 5,0 15,-7 22,-15 z m 8848,-303 c 25,-14 32,-58 7,-48 -62,24 -152,29 -301,18 -85.0001,-7 -163.0001,-16 -174.0001,-22 -37,-20 -34,-105 7,-184 21,-41 110,-134 157.0001,-163 49,-31 139,-63 180,-63 59,-1 4,-17 -79,-24 -89,-7 -448.0001,-58 -770.0001,-110 -115.00003,-19 -212.00007,-33 -214.00007,-31 -2,2 -3,46 -2,97 2,109 -15,313 -33,410 -13,66 -12,69 8,73 35,8 357.00007,34 566.00007,45 107,6 222,12 255,14 130.0001,7 370.0001,0 393.0001,-12 z m -3383,-61 c -3,-6 -11,-11 -17,-11 -6,0 -6,6 2,15 14,17 26,13 15,-4 z m -7283,-63 c -13,-6 -21,-17 -18,-24 3,-8 1,-16 -5,-20 -6,-3 -8,-12 -5,-19 3,-8 -2,-19 -10,-26 -8,-6 -12,-14 -9,-17 3,-3 0,-11 -7,-19 -9,-11 -8,-18 4,-30 12,-11 14,-23 7,-45 -11,-41 -56,-98 -77,-98 -9,0 -30,-9 -47,-20 -21,-14 -47,-20 -85,-20 -77,0 -118,14 -161,55 -20,20 -56,42 -80,50 -40,12 -41,14 -14,14 42,2 48,8 83,76 40,80 72,111 133,125 46,11 194,26 279,28 33,1 33,0 12,-10 z m 10787,-39 c 17,-57 7,-60 -12,-5 -9,26 -12,46 -8,46 4,0 13,-18 20,-41 z m -11190,15 c -7,-9 -29,-48 -49,-87 -54,-106 -87,-99 -36,8 23,50 47,77 76,88 23,8 23,8 9,-9 z m 7560,-16 c -20,-40 -121,-168 -140,-178 -10,-6 -27,-10 -38,-10 -26,0 -28,-17 -3,-24 9,-3 -1,-2 -23,1 -68,10 -280,9 -760,-6 -253,-7 -473,-12 -489,-10 -34,5 -41,22 -52,131 l -7,68 114,0 c 63,0 247,7 409,15 549,29 625,32 813,34 l 188,1 z m -7693,-270 c 51,-49 73,-63 107,-69 38,-6 35,-7 -25,-8 -72,-1 -97,-21 -27,-21 25,0 38,-4 34,-10 -9,-14 -210,-1 -252.0002,16 -21,8 -44,32 -66,66 -58,92 -61,88 59,88 l 106.0002,0 z m 78,19 c 15,-19 26,-38 26,-42 0,-11 -49,35 -61,58 -17,30 8,19 35,-16 z m 7866,-137 0,-170 -2487,1 c -1369,1 -2542,4 -2607,8 l -119,6 2,100 c 1,55 3,100 4,101 1,1 200,4 443,6 378,3 443,1 459,-12 26,-22 199,-24 978,-11 697,12 1020,20 1907,46 757,23 932,32 1020,55 83,22 204,37 323,39 l 77,1 z m 76,79 c 9,-106 -3,-249 -22,-249 -11,0 -14,29 -14,163 0,90 3,167 7,171 14,13 22,-11 29,-85 z m -5328,-107 c 3,-85 -8,-136 -31,-140 -16,-3 -17,5 -11,85 7,112 12,135 27,130 7,-2 13,-30 15,-75 z"
         inkscape:connector-curvature="0"
         sodipodi:nodetypes="cccccccccccccccsccccccccccsssssscccccscccscccccccccccscccccccccccccccccccccccccccccccccccccscccccccccccccccsccsccccssccccccssccscscccccscccccccscccccccccccccssccscssccccccccccccccsccsccccccccccccscccccsccccscccccccccscccsscscccscccccccsscccsccccccccscccccccccccccssccccccccssscccccccccccccccccccccccccsscccscccsccsccccccccccccsccssssccccsscccccccsccccccccccccccccccccccccccccccccccccscccscccsccccccccsccccccccssccccccccccccccssccsccsccccccsccscccccscscccccscsscccccccccccccccccccccccccsccsscccccccccccccscccccscccscscccccccccccccccccccccccsccscccccsccscscccccscccccccccsscsccsscccccccccccccccsccccccccsscccccscccccccccccccsscscccccccsscsscsscsccccccccccccccsccccccssscccscccccscssssssscccccccccscccccccscccccccscccscscccccccccsccccccccsccccccscccccccscccscccsccccccccscccccccccssccccccc"
         style="fill:#f0f0f0;fill-opacity:0.99215686"
         clip-path="url(#clipPath7930)"
         transform="matrix(0.14553012,-0.00189181,0.00485103,0.13726075,2985.7669,-1522.3392)" />
    </g>
  </g>
  <g
     inkscape:groupmode="layer"
     id="layer2"
     inkscape:label="Capa 2"
     transform="translate(0,-995.66929)" />
</svg>
